<svg id="Layer_1" enable-background="new 0 0 480.181 480.181" height="512" viewBox="0 0 480.181 480.181" width="512" xmlns="http://www.w3.org/2000/svg"><g><path d="m252.405 152.845c-9.119 15.795-3.718 35.958 12.079 45.079 3.82 2.205 8.716.905 10.928-2.928 2.209-3.827.898-8.719-2.928-10.928-3.933-2.271-6.746-5.936-7.921-10.322-3.91-14.594 11.893-26.644 24.921-19.123 3.826 2.209 8.719.898 10.928-2.928 2.209-3.827.898-8.719-2.928-10.928-15.759-9.1-35.98-3.68-45.079 12.078z"/><path d="m199.222 343.858c21.818-.002 37.532-20.634 31.931-41.535-2.281-8.514-7.742-15.63-15.375-20.038-3.827-2.21-8.72-.898-10.928 2.928-2.209 3.827-.898 8.719 2.928 10.928 3.933 2.271 6.746 5.936 7.921 10.322 3.908 14.584-11.88 26.651-24.921 19.123-8.118-4.687-10.909-15.105-6.222-23.223 2.209-3.826.898-8.719-2.928-10.928-3.826-2.21-8.719-.898-10.928 2.928-12.681 21.964 3.271 49.497 28.522 49.495z"/><path d="m182.777 140.766c-3.826 2.209-5.137 7.102-2.928 10.928 2.209 3.827 7.103 5.138 10.928 2.928 13.034-7.524 28.83 4.533 24.921 19.123-3.94 14.705-23.651 17.077-31.143 4.1-2.209-3.826-7.102-5.135-10.928-2.928-3.826 2.209-5.137 7.102-2.928 10.928 9.116 15.791 29.278 21.201 45.079 12.079 15.795-9.119 21.199-29.282 12.079-45.079-9.098-15.759-29.32-21.178-45.08-12.079z"/><path d="m297.484 339.443c3.826-2.209 5.137-7.102 2.928-10.928s-7.102-5.137-10.928-2.928c-8.117 4.688-18.536 1.896-23.223-6.223-4.698-8.137-1.915-18.524 6.223-23.222 8.135-4.699 18.524-1.915 23.222 6.222 2.21 3.827 7.104 5.137 10.928 2.928 3.826-2.209 5.137-7.102 2.928-10.928-9.119-15.795-29.282-21.199-45.079-12.079-15.794 9.119-21.199 29.282-12.079 45.079 9.057 15.685 29.253 21.217 45.08 12.079z"/><path d="m329.062 63.154c-27.738-13.967-57.659-21.049-88.931-21.049-109.178 0-198 88.822-198 198s88.822 198 198 198c27.835 0 54.755-5.664 80.012-16.834 131.605-58.207 158.64-232.069 52.932-327.899-3.273-2.968-8.332-2.719-11.3.554-2.967 3.273-2.719 8.333.554 11.3 35.271 31.975 56.375 75.659 59.421 122.997 6.729 106.041-77.064 193.882-181.619 193.882-100.355 0-182-81.645-182-182s81.645-182 182-182c28.75 0 56.25 6.507 81.735 19.34 3.948 1.989 8.756.399 10.744-3.547 1.987-3.947.398-8.757-3.548-10.744z"/><path d="m321.838 257.105c-9.374 0-17-7.626-17-17s7.626-17 17-17c4.418 0 8-3.582 8-8s-3.582-8-8-8c-18.196 0-33 14.804-33 33s14.804 33 33 33 33-14.804 33-33c0-4.418-3.582-8-8-8s-8 3.582-8 8c0 9.374-7.626 17-17 17z"/><path d="m191.424 240.105c0-4.418-3.582-8-8-8s-8 3.582-8 8c0 9.374-7.626 17-17 17s-17-7.626-17-17 7.626-17 17-17c4.418 0 8-3.582 8-8s-3.582-8-8-8c-18.196 0-33 14.804-33 33s14.804 33 33 33 33-14.804 33-33z"/><path d="m119.548 188.962c7.682 4.434 17.47 1.741 21.855-5.856 4.422-7.659 1.804-17.435-5.856-21.857-7.638-4.411-17.445-1.784-21.856 5.856s-1.784 17.445 5.857 21.857z"/><path d="m360.714 291.248c-12.266-7.08-27.133 4.266-23.455 17.998 3.686 13.759 22.214 16.151 29.311 3.859 4.412-7.641 1.785-17.446-5.856-21.857z"/><path d="m113.691 313.105c4.397 7.616 14.195 10.28 21.856 5.857 7.658-4.421 10.28-14.197 5.857-21.857-4.412-7.64-14.216-10.269-21.856-5.856-7.641 4.41-10.268 14.215-5.857 21.856z"/><path d="m366.571 167.104c-7.083-12.268-25.633-9.871-29.311 3.859-2.715 10.135 4.904 20.138 15.482 20.138 12.241 0 19.979-13.345 13.829-23.997z"/><circle cx="240.131" cy="110.105" r="16"/><circle cx="240.131" cy="370.105" r="16"/><circle cx="381.131" cy="240.105" r="12"/><circle cx="99.131" cy="240.105" r="12"/><path d="m307.525 373.805c10.218 2.735 18.873-8.281 13.498-17.591-5.374-9.308-19.246-7.322-21.983 2.894-1.716 6.404 2.077 12.98 8.485 14.697z"/><path d="m172.737 106.404c-6.404-1.715-12.98 2.075-14.697 8.485-2.036 7.601 3.679 15.104 11.611 15.104 5.252 0 10.122-3.484 11.571-8.892 1.716-6.404-2.077-12.98-8.485-14.697z"/><path d="m304.631 128.387c5.779 3.336 13.111 1.29 16.392-4.392 3.316-5.744 1.354-13.076-4.392-16.393-5.742-3.315-13.076-1.353-16.391 4.391-3.317 5.744-1.355 13.077 4.391 16.394z"/><path d="m163.631 372.607c9.174 5.296 20.367-3.137 17.591-13.499-2.76-10.301-16.674-12.09-21.983-2.895-3.316 5.744-1.354 13.077 4.392 16.394z"/><path d="m409.837 70.399c-101.453-101.453-272.377-93.27-361.551 25.588-44.292 59.034-60.482 136.257-38.606 211.357 1.236 4.242 5.675 6.68 9.918 5.443 4.242-1.235 6.679-5.676 5.443-9.918-41.666-143.039 65.347-286.764 215.09-286.764 123.514 0 224 100.486 224 224s-100.486 224-224 224c-80.41 0-155.078-43.472-194.866-113.451-2.183-3.841-7.066-5.184-10.909-3-3.841 2.184-5.184 7.068-3 10.909 78.015 137.21 266.142 163.827 378.622 51.095 93.605-93.815 93.65-245.468-.141-339.259z"/></g></svg>