<svg id="Layer_1" enable-background="new 0 0 480 480" height="512" viewBox="0 0 480 480" width="512" xmlns="http://www.w3.org/2000/svg"><g><path d="m317.883 12.922c-4.174-1.432-8.728.792-10.162 4.972-1.434 4.179.793 8.729 4.973 10.162 90.5 31.034 151.306 116.207 151.306 211.944 0 123.514-100.486 224-224 224s-224-100.486-224-224 100.486-224 224-224c4.418 0 8-3.582 8-8s-3.582-8-8-8c-133.184 0-240 107.848-240 240 0 132.641 107.341 240 240 240 133.42 0 240-108.207 240-240 0-102.572-65.149-193.828-162.117-227.078z"/><path d="m245.657 202.489c-3.124-3.124-8.189-3.125-11.314 0l-31.854 31.854c-3.125 3.124-3.125 8.19 0 11.314l31.854 31.854c3.124 3.124 8.189 3.125 11.314 0l31.854-31.854c3.124-3.124 3.124-8.19 0-11.314-3.125-3.124-8.189-3.124-11.314 0l-26.197 26.198-20.541-20.541 26.198-26.198c3.124-3.124 3.124-8.189 0-11.313z"/><path d="m234.343 391.657c3.124 3.125 8.189 3.124 11.314 0l88.928-88.927c3.124-3.124 3.124-8.19 0-11.314s-8.188-3.124-11.314 0l-83.271 83.27-77.613-77.614 20.541-20.541 51.416 51.416c3.121 3.122 8.189 3.124 11.314 0l57.072-57.073c3.124-3.124 3.124-8.189 0-11.314-3.126-3.125-8.19-3.124-11.314 0l-51.416 51.417-51.416-51.416c-3.124-3.125-8.189-3.125-11.313 0l-31.854 31.854c-3.125 3.124-3.125 8.19 0 11.314z"/><path d="m245.657 88.343c-3.124-3.124-8.189-3.124-11.314 0l-88.927 88.927c-3.125 3.124-3.125 8.189 0 11.314l31.854 31.854c3.123 3.124 8.189 3.125 11.313 0l24.403-24.403c3.125-3.124 3.125-8.19 0-11.314-3.123-3.124-8.188-3.124-11.313 0l-18.747 18.746-20.541-20.541 77.615-77.612 77.614 77.614-20.542 20.541-51.415-51.416c-3.124-3.125-8.189-3.124-11.314 0s-3.125 8.19 0 11.314l57.072 57.073c3.125 3.124 8.189 3.125 11.314 0l31.855-31.854c3.122-3.122 3.123-8.19 0-11.314z"/><path d="m120.198 277.511c3.124 3.124 8.189 3.125 11.313 0l31.854-31.854c3.125-3.124 3.125-8.19 0-11.314l-31.854-31.854c-3.124-3.125-8.189-3.125-11.313 0l-31.854 31.854c-3.125 3.124-3.125 8.19 0 11.314 3.124 3.124 8.189 3.124 11.313 0l26.198-26.198 20.541 20.541-26.198 26.198c-3.125 3.124-3.125 8.189 0 11.313z"/><path d="m327.948 234.343c-3.125-3.124-8.189-3.124-11.314 0-3.124 3.124-3.124 8.19 0 11.314l31.854 31.854c3.125 3.124 8.189 3.125 11.314 0l31.854-31.854c3.124-3.124 3.124-8.19 0-11.314l-31.854-31.854c-3.125-3.125-8.189-3.125-11.314 0-3.124 3.124-3.124 8.189 0 11.313l26.199 26.198-20.541 20.541z"/><path d="m179.425 428.551c98.35 31.587 199.493-17.752 240.217-105 34.963-74.905 20.049-167.507-43.961-227.755-36.857-34.691-85.042-53.796-135.681-53.796-109.178 0-198 88.823-198 198 0 66.118 32.497 125.095 82.97 161.168 3.595 2.569 8.592 1.737 11.161-1.857s1.737-8.591-1.857-11.16c-47.76-34.134-76.274-89.517-76.274-148.151 0-100.355 81.645-182 182-182 95.703 0 175.479 74.728 181.618 170.118 8.274 130.378-117.223 223.765-237.301 185.199-4.207-1.351-8.712.963-10.063 5.17-1.351 4.208.964 8.713 5.171 10.064z"/></g></svg>