<svg id="Layer_1" enable-background="new 0 0 480.084 480.084" height="512" viewBox="0 0 480.084 480.084" width="512" xmlns="http://www.w3.org/2000/svg"><g><path d="m409.773 70.344c-93.782-93.781-245.82-93.859-339.596.166-93.537 93.787-93.62 245.442.185 339.246 66.859 66.859 162.376 85.473 244.878 58.292 4.196-1.382 6.478-5.905 5.095-10.101-1.382-4.197-5.905-6.478-10.102-5.095-22.555 7.431-46.163 11.199-70.166 11.199-123.514 0-224-100.486-224-224s100.486-224 224-224 224 100.486 224 224c0 75.565-37.733 145.548-100.938 187.203-3.689 2.431-4.709 7.393-2.277 11.082 2.432 3.69 7.394 4.709 11.082 2.277 127.267-83.876 145.174-262.933 37.839-370.269z"/><path d="m191.415 48.074c-87.934 22.218-149.348 101.162-149.348 191.976 0 109.177 88.822 198 198 198 55.416 0 107.177-22.867 144.397-62.525 75.721-80.679 69.287-204.306-6.802-277.854-35.61-34.42-82.456-54.146-131.908-55.542-4.43-.126-8.098 3.354-8.222 7.771-.125 4.417 3.354 8.098 7.771 8.223 94.487 2.667 170.315 75.774 176.382 170.044 6.729 106.042-77.064 193.882-181.619 193.882-100.355 0-182-81.645-182-182 0-83.478 56.446-156.042 137.268-176.464 4.284-1.083 6.878-5.432 5.796-9.716-1.081-4.282-5.428-6.877-9.715-5.795z"/><path d="m281.914 306.246c4.267 1.145 8.654-1.389 9.798-5.657 5.22-19.486-6.322-39.481-25.81-44.703l-42.983-11.518c-4.266-1.142-8.654 1.388-9.798 5.657l-14.753 55.058c-1.142 4.265 1.389 8.655 5.657 9.798l42.984 11.517c4.277 1.147 8.657-1.4 9.798-5.657 1.144-4.268-1.389-8.655-5.657-9.798l-35.256-9.447 10.612-39.603 35.256 9.447c10.943 2.932 17.429 14.162 14.496 25.107-1.144 4.269 1.388 8.655 5.656 9.799z"/><path d="m311.988 205.601c1.144-4.268-1.389-8.655-5.657-9.798-4.268-1.144-8.654 1.389-9.798 5.656-2.925 10.919-14.191 17.42-25.107 14.496l-29.461-7.894 10.612-39.603 29.46 7.894c4.271 1.146 8.655-1.389 9.798-5.657 1.144-4.268-1.389-8.654-5.657-9.798l-37.188-9.965c-4.269-1.144-8.654 1.389-9.798 5.657l-14.753 55.058c-1.142 4.265 1.389 8.655 5.657 9.798l37.188 9.965c19.477 5.219 39.505-6.409 44.704-25.809z"/><path d="m259.052 86.335c-4.266-1.143-8.655 1.389-9.798 5.657l-5.176 19.319-47.331-12.682c-4.265-1.143-8.654 1.39-9.798 5.657l-9.973 37.221c-1.144 4.268 1.389 8.654 5.657 9.798 7.989 2.141 12.747 10.382 10.606 18.371l-27.159 101.357c-2.145 8.006-10.359 12.752-18.371 10.607-4.266-1.145-8.653 1.389-9.798 5.657l-9.974 37.221c-1.144 4.268 1.389 8.654 5.657 9.798l47.331 12.682-5.176 19.318c-1.361 5.081 2.475 10.073 7.732 10.073 3.532 0 6.765-2.357 7.723-5.931l5.176-19.318 38.637 10.352-5.177 19.319c-1.361 5.081 2.475 10.073 7.732 10.073 3.532 0 6.765-2.357 7.723-5.931l5.321-19.858c22.499 3.803 44.784.727 62.352-13.374 16.182-12.988 25.278-33.627 24.334-55.21-.193-4.414-3.913-7.83-8.342-7.643-4.414.193-7.836 3.928-7.643 8.342.722 16.51-6.144 32.223-18.365 42.033-14.598 11.717-35.379 14.41-60.092 7.788l-97.399-26.098 6.101-22.767c13.278.097 26.174-8.818 29.972-22.99l27.159-101.357c3.708-13.841-2.601-28.046-14.464-34.886l6.103-22.777 98.39 26.364c45.926 12.306 51.595 85.044 5.651 105.317-4.042 1.784-5.873 6.507-4.089 10.549 1.783 4.042 6.509 5.873 10.548 4.089 55.773-24.611 53.591-107.558 2.531-131.562l5.435-20.284c1.144-4.268-1.389-8.655-5.657-9.798-4.266-1.143-8.655 1.389-9.798 5.657l-5.176 19.318-38.637-10.353 5.176-19.319c1.146-4.268-1.386-8.655-5.654-9.799z"/></g></svg>