<svg id="Layer_1" enable-background="new 0 0 480.257 480.257" height="512" viewBox="0 0 480.257 480.257" width="512" xmlns="http://www.w3.org/2000/svg"><g><path d="m330.103 207.092c-1.125-47.783-39.998-86.684-87.809-87.809-50.543-1.206-92.166 39.328-92.166 89.974 0 4.418 3.582 8 8 8s8-3.582 8-8c0-41.468 33.993-74.929 75.789-73.979 39.55.931 71.259 32.64 72.189 72.19.956 40.602-31.253 74.587-71.799 75.757-13.145.379-24.847 4.024-34.239 10.237l15.6-83.232c.814-4.343-2.047-8.523-6.39-9.337-4.345-.813-8.523 2.047-9.337 6.39l-25.677 137c-.814 4.343 2.047 8.523 6.39 9.337 4.332.811 8.521-2.037 9.337-6.39l3.097-16.524c4.208-22.45 24.29-30.985 41.68-31.487 49.319-1.424 88.497-42.752 87.335-92.127z"/><circle cx="246.128" cy="337.257" r="16"/><path d="m163.392 12.769c-4.187 1.411-6.438 5.948-5.027 10.135 1.411 4.188 5.95 6.438 10.135 5.027 22.993-7.747 47.092-11.674 71.628-11.674 123.514 0 224 100.486 224 224s-100.486 224-224 224-224-100.486-224-224c0-74.959 37.243-144.625 99.624-186.355 3.672-2.457 4.658-7.425 2.201-11.098-2.457-3.672-7.426-4.658-11.098-2.201-66.829 44.706-106.727 119.343-106.727 199.654 0 132.64 107.341 240 240 240 133.423 0 240-108.21 240-240 0-163.432-160.577-280.105-316.736-227.488z"/><path d="m410.468 331.46c3.986 1.927 8.765.245 10.684-3.724 26.597-55.063 26.628-119.892-.002-174.962-1.924-3.977-6.707-5.642-10.685-3.719s-5.644 6.707-3.72 10.685c24.367 50.39 24.366 110.59-.002 161.038-1.92 3.978-.253 8.76 3.725 10.682z"/><path d="m101.95 94.285c-80.489 76.192-83.984 203.661-7.792 284.15 76.281 80.583 203.755 83.897 284.15 7.792 3.208-3.037 3.347-8.101.31-11.309-3.038-3.209-8.102-3.348-11.31-.31-74.081 70.127-191.404 66.908-261.531-7.172-70.126-74.082-66.909-191.405 7.172-261.531 74.082-70.126 191.405-66.91 261.532 7.172 3.037 3.209 8.101 3.347 11.31.31 3.208-3.037 3.348-8.101.31-11.309-76.194-80.488-203.664-83.984-284.151-7.793z"/><path d="m99.967 302.194c-3.941 1.998-5.516 6.812-3.519 10.753 1.577 3.11 3.277 6.209 5.055 9.213 2.262 3.822 7.175 5.049 10.959 2.81 3.802-2.25 5.06-7.157 2.81-10.959-1.601-2.705-3.133-5.497-4.553-8.298-1.997-3.942-6.812-5.516-10.752-3.519z"/><path d="m377.1 308.973c-3.837-2.188-8.724-.85-10.912 2.988-1.559 2.735-3.229 5.453-4.961 8.078-3.536 5.355.379 12.409 6.668 12.409 2.598 0 5.146-1.263 6.684-3.593 1.925-2.915 3.778-5.933 5.51-8.969 2.187-3.839.85-8.725-2.989-10.913z"/><path d="m313.538 365.329c-2.707 1.593-5.502 3.117-8.309 4.529-3.946 1.987-5.535 6.796-3.548 10.743 1.977 3.927 6.777 5.545 10.743 3.548 3.116-1.569 6.221-3.261 9.227-5.029 3.808-2.241 5.079-7.144 2.839-10.952-2.241-3.808-7.142-5.078-10.952-2.839z"/><path d="m384.219 168.357c-1.559-3.119-3.244-6.231-5.009-9.25-2.23-3.813-7.128-5.099-10.944-2.868-3.814 2.23-5.099 7.13-2.868 10.944 1.589 2.718 3.106 5.519 4.509 8.326 1.975 3.952 6.781 5.556 10.732 3.58 3.952-1.974 5.555-6.78 3.58-10.732z"/><path d="m392.391 257.398c4.429.257 8.197-3.122 8.455-7.518.231-3.941.293-6.997.281-10.515-.015-4.293-3.479-7.96-8.058-7.944-4.418.016-7.958 3.638-7.942 8.056.011 3.089-.042 5.865-.253 9.465-.259 4.411 3.107 8.197 7.517 8.456z"/><path d="m87.95 222.285c-4.424-.29-8.21 3.068-8.49 7.478-.25 3.934-.367 8.06-.321 12.262.046 4.39 3.618 7.917 7.998 7.917 4.453 0 8.048-3.633 8.001-8.083-.037-3.7.052-7.334.29-11.082.279-4.411-3.069-8.213-7.478-8.492z"/><path d="m239.734 95.144c3.176 0 6.156.081 9.448.292 4.449.275 8.214-3.094 8.494-7.473.282-4.41-3.063-8.212-7.473-8.495-3.368-.215-6.784-.324-10.153-.324-5.139 0-8.368 3.846-8.351 8.034.019 4.348 3.525 7.966 8.035 7.966z"/><path d="m117.224 148.723c-3.67-2.46-8.64-1.479-11.1 2.19-1.95 2.909-3.825 5.916-5.575 8.937-3.104 5.361.821 12.01 6.916 12.01 2.761 0 5.448-1.432 6.931-3.993 1.574-2.719 3.263-5.425 5.018-8.043 2.46-3.671 1.479-8.641-2.19-11.101z"/><path d="m329.079 106.038c-2.911-1.933-5.923-3.793-8.951-5.531-3.833-2.199-8.722-.874-10.92 2.958-2.198 3.833-.874 8.722 2.959 10.92 2.728 1.564 5.44 3.241 8.063 4.982 3.674 2.44 8.642 1.447 11.09-2.24 2.442-3.679 1.439-8.645-2.241-11.089z"/><path d="m241.325 385.254c-3.09 0-5.742-.02-9.478-.229-4.401-.256-8.188 3.127-8.436 7.539-.248 4.411 3.128 8.188 7.539 8.436 3.57.2 7.181.281 10.505.251 4.418-.036 7.971-3.646 7.935-8.064-.035-4.294-3.477-7.933-8.065-7.933z"/><path d="m160.683 361.586c-3.692-2.423-8.652-1.396-11.078 2.298-2.424 3.693-1.396 8.653 2.298 11.078 2.924 1.919 5.946 3.765 8.983 5.486 3.845 2.178 8.726.827 10.904-3.017s.828-8.726-3.017-10.904c-2.734-1.55-5.457-3.212-8.09-4.941z"/><path d="m163.424 115.934c3.255 0 3.646-1.244 12.356-5.583 3.955-1.97 5.563-6.773 3.593-10.728-1.97-3.954-6.772-5.563-10.728-3.593-3.12 1.555-6.232 3.232-9.25 4.988-3.819 2.221-5.115 7.118-2.894 10.937 1.486 2.554 4.167 3.979 6.923 3.979z"/></g></svg>