<svg id="Layer_1" enable-background="new 0 0 480.016 480.016" height="512" viewBox="0 0 480.016 480.016" width="512" xmlns="http://www.w3.org/2000/svg"><g><path d="m343.24 350.104c2.047 0 4.095-.781 5.657-2.343 60.044-60.044 60.044-157.744 0-217.789-3.123-3.124-8.188-3.125-11.313 0-3.125 3.124-3.125 8.189 0 11.313 53.806 53.806 53.806 141.355 0 195.162-5.056 5.054-1.407 13.657 5.656 13.657z"/><path d="m131.107 129.972c-60.044 60.044-60.044 157.744 0 217.789 1.562 1.563 3.609 2.343 5.657 2.343 7.062 0 10.712-8.602 5.657-13.657-53.806-53.806-53.806-141.355 0-195.162 3.125-3.124 3.125-8.189 0-11.313-3.124-3.124-8.19-3.124-11.314 0z"/><path d="m246.177 389.952 95.513-116c2.335-2.836 2.438-6.898.25-9.85-2.188-2.951-6.104-4.033-9.498-2.622l-95.515 39.71c-4.08 1.696-6.012 6.378-4.316 10.458s6.378 6.012 10.458 4.316l65.84-27.373-68.909 83.69-89.34-108.5c-2.81-3.411-7.851-3.899-11.261-1.091-3.411 2.809-3.899 7.85-1.09 11.261l95.516 116c3.199 3.885 9.154 3.885 12.352.001z"/><path d="m240.002 228.254c4.418 0 8-3.582 8-8v-102.077l80.966 115.287c2.54 3.616 7.529 4.487 11.145 1.949 3.616-2.539 4.488-7.529 1.949-11.145l-95.513-136c-3.181-4.531-9.918-4.515-13.094 0l-95.516 136c-2.937 4.183-1.248 10.021 3.476 11.985l95.514 39.71c1.966.817 4.177.817 6.143 0l57.334-23.836c4.08-1.696 6.012-6.378 4.316-10.458s-6.378-6.013-10.458-4.316l-54.264 22.559-83.238-34.606 75.24-107.13v102.077c0 4.419 3.581 8.001 8 8.001z"/><path d="m420.482 80.663c-38.024-43.345-90.256-71.574-147.074-79.489-4.377-.608-8.418 2.444-9.027 6.82-.61 4.376 2.443 8.418 6.819 9.027 109.915 15.312 192.801 110.684 192.801 221.845 0 123.514-100.486 224-224 224s-224-100.486-224-224c0-109.403 78.089-202.24 185.679-220.744 4.354-.749 7.277-4.886 6.528-9.24-.749-4.355-4.888-7.278-9.24-6.528-55.149 9.485-105.574 38.336-141.983 81.236-79.226 93.35-76.805 234.865 13.312 324.981 93.789 93.789 245.754 93.856 339.552-.153 90.665-90.868 92.672-234.238 10.633-327.755z"/><path d="m380.882 366.604c3.393 2.83 8.438 2.372 11.267-1.022 32.539-39.029 48.676-88.611 45.438-139.618-6.672-103.675-92.853-185.098-197.586-185.098-109.178 0-198 88.823-198 198s88.822 198 198 198c36.288 0 71.781-9.906 102.641-28.648 3.776-2.293 4.979-7.214 2.685-10.99s-7.213-4.978-10.991-2.685c-28.356 17.221-60.977 26.324-94.335 26.324-100.355 0-182-81.645-182-182s81.645-182 182-182c95.703 0 175.479 74.728 181.619 170.118 2.976 46.898-11.854 92.481-41.76 128.352-2.829 3.393-2.372 8.438 1.022 11.267z"/></g></svg>