<svg id="Layer_1" enable-background="new 0 0 480.109 480.109" height="512" viewBox="0 0 480.109 480.109" width="512" xmlns="http://www.w3.org/2000/svg"><g><path d="m130.296 404.918c57.406 38.291 129.338 43.084 189.77 16.357 72.601-32.11 123.109-106.86 117.574-194.068-6.672-103.676-92.853-185.098-197.586-185.098-109.178 0-198 88.822-198 198 0 48.607 17.771 95.337 50.039 131.58 2.937 3.3 7.995 3.594 11.295.655 3.3-2.938 3.593-7.994.655-11.294-29.657-33.311-45.989-76.262-45.989-120.941 0-100.355 81.645-182 182-182 95.703 0 175.479 74.728 181.619 170.118 3.232 50.93-14.13 99.374-48.888 136.407-63.607 67.772-162.928 74.118-233.611 26.973-3.674-2.451-8.643-1.459-11.094 2.216-2.452 3.676-1.459 8.643 2.216 11.095z"/><path d="m347.374 25.384c-3.952-1.98-8.758-.379-10.735 3.571-1.978 3.951-.379 8.757 3.571 10.735 76.39 38.252 123.845 115.048 123.845 200.419 0 123.514-100.486 224-224 224s-224-100.486-224-224c0-142.446 131.618-249.412 271.873-218.874 4.319.93 8.579-1.798 9.519-6.116.94-4.316-1.798-8.578-6.115-9.519-150.043-32.654-291.277 81.651-291.277 234.509 0 132.641 107.341 240 240 240 133.423 0 240-108.21 240-240 0-92.423-52.6-174.626-132.681-214.725z"/><path d="m292.313 93.272c-5.688-3.092-12.213-3.787-18.375-1.956-12.823 3.811-20.153 17.455-16.34 30.416 3.184 10.818 13.012 17.623 23.368 17.623 8.595 0 16.911-4.579 21.307-12.79 6.377-11.911 1.955-26.817-9.96-33.293z"/><path d="m377.568 197.851c-.561-19.828-24.726-29.04-38.132-14.638-13.163 14.136-3.23 37.544 16.083 37.544 12.415.001 22.405-10.379 22.049-22.906z"/><path d="m292.556 154.774c-18.36 5.406-20.96 30.709-4.012 39.918 16.778 9.119 36.211-6.752 30.8-25.142-3.384-11.497-15.402-18.121-26.788-14.776z"/><path d="m316.826 250.222c.194 8.702 7.323 15.6 15.961 15.6 9.053 0 16.283-7.487 16.025-16.435-.254-8.825-7.615-15.766-16.445-15.56-8.765.245-15.737 7.6-15.541 16.395z"/><path d="m296.476 239.437c8.533-2.583 13.32-11.653 10.658-20.202-4.141-13.296-22.505-15.585-29.318-2.982-6.835 12.644 5.125 27.288 18.66 23.184z"/><path d="m317.802 282.41c-.153-6.491-5.505-11.833-12.222-11.695-10.711.252-15.631 13.421-7.957 20.712 7.669 7.286 20.431 1.649 20.179-9.017z"/><path d="m269.32 252.996c-6.512 1.917-10.249 8.797-8.33 15.338 3.064 10.437 17.326 12.169 22.624 2.511 5.283-9.637-3.792-20.939-14.294-17.849z"/><path d="m95.298 264.93c-8.247 10.561-6.638 25.97 4.064 34.282 10.554 8.196 25.917 6.232 34.241-4.429 8.312-10.642 6.528-25.966-4.07-34.241-10.552-8.24-25.911-6.274-34.235 4.388z"/><path d="m125.621 152.928c-9.78 7.435-11.747 21.363-4.385 31.049 11.812 15.538 36.902 9.004 39.708-10.55 2.795-19.478-19.53-32.503-35.323-20.499z"/><path d="m136.521 216.74c-7.376 9.447-5.767 23.076 3.587 30.381 15.095 11.791 37.171-.832 34.788-19.982-2.359-18.948-26.572-25.508-38.375-10.399z"/><path d="m184.264 146.293c-7.026 5.346-8.405 15.409-3.072 22.432 8.489 11.176 26.642 6.685 28.595-7.491 1.941-14.087-14.254-23.516-25.523-14.941z"/><path d="m206.653 194.634c-7.07-5.433-17.229-4.044-22.631 3.1-7.85 10.385-.692 25.697 12.636 25.697 4.871 0 9.689-2.189 12.882-6.412 5.317-7.035 4.021-17.077-2.887-22.385z"/><path d="m229.162 152.263c-5.282 3.976-6.355 11.495-2.392 16.762 6.399 8.499 20.017 4.981 21.488-5.6 1.459-10.494-10.566-17.587-19.096-11.162z"/><path d="m239.67 186.8c-6.821.825-11.62 7.03-10.83 13.755 1.292 10.981 15.239 14.702 21.967 6.1 6.744-8.621-.27-21.149-11.137-19.855z"/><path d="m335.783 351.494c13.461 1.668 25.704-7.812 27.312-21.116 1.604-13.281-8-25.434-21.407-27.088-13.422-1.663-25.629 7.774-27.274 21.099-1.642 13.288 7.944 25.447 21.369 27.105z"/><path d="m211.644 354.322c-5.81 14.516 5.132 30.383 20.831 30.383 8.652 0 17.045-5.095 20.54-13.825 4.548-11.365-1.112-24.211-12.487-28.762-11.407-4.572-24.353.885-28.884 12.204z"/><path d="m254.369 316.922c-1.531 12.7 8.439 24.169 21.632 24.169 10.779 0 20.117-7.937 21.466-18.87 2.346-18.992-19.838-31.446-35.028-19.559-4.522 3.538-7.389 8.602-8.07 14.26z"/><path d="m188.247 336.189c8.479 3.379 17.457-.408 20.855-8.887 5.247-13.096-8.06-26.25-21.139-20.67-12.515 5.34-13.654 23.999.284 29.557z"/><path d="m218.229 292.142c-1.023 8.858 5.395 16.857 14.296 17.814 8.653.928 16.568-5.309 17.697-13.848 1.136-8.597-5.1-16.967-14.281-17.955-8.774-.961-16.712 5.334-17.712 13.989z"/><path d="m170.061 272.493c-9.754 4.148-9.676 18.121.25 22.149 2.887 1.171 6.127 1.213 9.132-.034 9.816-4.075 9.822-18.129-.152-22.187-2.988-1.214-6.266-1.189-9.23.072z"/><path d="m205.83 248.091c-10.873-1.334-17.992 11.141-11.3 19.76 6.723 8.659 20.707 4.935 22.061-6.017.831-6.735-3.994-12.9-10.761-13.743z"/></g></svg>