<svg id="Layer_1" enable-background="new 0 0 480 480" height="512" viewBox="0 0 480 480" width="512" xmlns="http://www.w3.org/2000/svg"><g><path d="m409.705 70.294c-93.32-93.322-240.765-92.087-333.182-6.032-3.233 3.011-3.413 8.073-.402 11.307 3.01 3.234 8.074 3.415 11.307.403 41.532-38.673 95.717-59.972 152.572-59.972 123.514 0 224 100.486 224 224s-100.486 224-224 224-224-100.486-224-224c0-37.203 9.315-74.06 26.94-106.587 2.104-3.884.662-8.74-3.223-10.845-3.888-2.106-8.74-.662-10.846 3.223-18.887 34.859-28.871 74.352-28.871 114.209 0 132.639 107.341 240 240 240 133.423 0 240-108.21 240-240 0-64.107-24.965-124.376-70.295-169.706z"/><path d="m376.885 155.204c-2.33-3.754-7.262-4.909-11.016-2.579s-4.908 7.262-2.578 11.016c14.202 22.882 21.709 49.287 21.709 76.359 0 79.953-65.047 145-145 145s-145-65.047-145-145c0-47.301 22.085-90.249 60.594-117.83 57.488-41.176 132.121-34.095 181.108 9.783 3.291 2.947 8.349 2.669 11.297-.622s2.67-8.349-.622-11.296c-36.372-32.579-85.337-46.78-132.78-39.114-74.043 11.966-135.597 75.6-135.597 159.079 0 88.776 72.225 161 161 161s161-72.224 161-161c0-30.057-8.339-59.378-24.115-84.796z"/><path d="m170 347h144c3.776 0 7.039-2.641 7.825-6.335l10-47c1.059-4.98-2.745-9.665-7.825-9.665h-76.124l6.171-34.514c.777-4.35-2.117-8.505-6.467-9.283-4.345-.78-8.506 2.117-9.283 6.467l-7.854 43.922c-.878 4.906 2.902 9.408 7.875 9.408h75.801l-6.596 31h-127.97l35.146-197h43.743c-15.084 84.362-14.416 78.86-13.779 81.269.925 3.548 4.18 5.972 7.733 5.972 1.471 0-.045.282 29.633-7.502 4.274-1.121 6.83-5.494 5.709-9.768-1.121-4.273-5.494-6.829-9.768-5.708l-15.491 4.063 13.396-74.917c.878-4.906-2.902-9.408-7.875-9.408h-60c-3.876 0-7.195 2.779-7.876 6.595l-17.609 98.705-26.544 6.962c-4.274 1.121-6.83 5.494-5.709 9.768 1.122 4.279 5.5 6.828 9.768 5.708l19.39-5.086-17.295 96.942c-.877 4.918 2.912 9.405 7.875 9.405z"/><path d="m370.814 370.815c-72.131 72.131-189.498 72.131-261.629 0-3.124-3.123-8.188-3.125-11.314 0-3.124 3.124-3.124 8.189 0 11.313 78.368 78.367 205.884 78.372 284.258 0 3.124-3.124 3.124-8.189 0-11.313-3.126-3.125-8.191-3.123-11.315 0z"/><path d="m414.458 323.054c4.069 1.732 8.764-.162 10.495-4.226 31.627-74.272 16.168-161.964-42.824-220.956-78.371-78.37-205.887-78.37-284.258 0-58.933 58.935-74.486 146.606-42.822 220.96 1.735 4.073 6.438 5.954 10.495 4.226 4.064-1.731 5.957-6.43 4.226-10.495-29.748-69.855-14.277-149.686 39.416-203.378 72.131-72.131 189.498-72.131 261.629 0 53.692 53.691 69.164 133.521 39.418 203.374-1.732 4.065.161 8.764 4.225 10.495z"/></g></svg>