<svg id="Layer_1" enable-background="new 0 0 480.056 480.056" height="512" viewBox="0 0 480.056 480.056" width="512" xmlns="http://www.w3.org/2000/svg"><g><path d="m185.933 150.014-40.717-34.429c-2.884-2.438-7.082-2.529-10.068-.212-2.985 2.316-3.943 6.404-2.298 9.806l46.5 96.11c-15.955 16.052-9.68 19.803-33.895 63.9-4.545 8.277-7.048 12.837-7.418 21.323-.87 19.954 11.309 36.3 17.869 42.155 8.536 7.617 22.032 10.406 37.619 7.949-.069 8.42-.389 16.117 4.589 23.407 11.36 16.633 37.938 9.834 37.938-12.002 0-4.418-3.582-8-8-8s-8 3.582-8 8c0 3.387-1.688 4.62-3.104 5.057-1.601.496-4.031.246-5.62-2.078-2.658-3.893-1.559-10.805-1.863-18.534 11.966-4.308 23.882-11.22 34.796-20.213 6.225 16.203 7.604 33.684 3.96 51.132-1.04 4.978 2.765 9.637 7.839 9.637 3.708 0 7.035-2.593 7.823-6.366 5.136-24.59 1.77-49.257-9.736-71.333-2.474-4.745-8.832-5.772-12.673-2.038-20.592 20.028-42.997 28.26-58.604 28.258-7.128 0-12.841-1.718-16.31-4.814-3.452-3.081-13.166-15.118-12.539-29.521.201-4.595 1.125-6.426 5.459-14.319 19.992-36.413 20.036-46.482 26.568-55.016 6.178-8.071 14.855-14.575 25.834-19.406.533.923 1.079 1.842 1.655 2.75 2.366 3.732 7.309 4.841 11.04 2.475 3.732-2.365 4.84-7.308 2.476-11.04-10.138-15.997-11.842-34.173-4.953-50.706 5.479 1.636 10.497 4.005 14.978 7.073 9.95 6.813 13.263 14.337 16.771 22.303 3.551 8.063 7.574 17.201 18.441 23.602 20.323 11.972 34.833-1.402 56.589 10.927 7.402 4.195 11.156 8.529 12.882 9.996 12.351 10.496 18.515 25.555 17.682 41.036-17.428-25.898-48.666-25.498-64.899-36.938-3.609-2.545-8.603-1.682-11.147 1.93-2.545 3.611-1.681 8.603 1.931 11.148 3.458 2.438 7.24 4.391 11.158 6.092-.872 4.155-1.198 8.288-.97 12.351 1.594 28.393 27.944 39.387 29.324 61.944.358 5.838-.863 11.86-3.631 17.898-2.447 5.338 1.504 11.335 7.268 11.335 3.031 0 5.932-1.732 7.277-4.669 3.876-8.456 5.577-17.05 5.057-25.542-1.925-31.447-32.646-41.585-29.069-67.699 19.17 6.46 35.654 12.302 41.514 38.443 1.648 7.343 11.662 8.55 14.987 1.776 13.955-28.415 7.579-60.937-15.843-81.056-4.711-4.73-9.966-8.758-15.629-11.967-25.869-14.661-42.23-2.471-56.356-10.793-8.808-5.189-9.975-13.323-15.652-24.216 19.751-5.66 40.641-1.668 55.194 11.066 3.325 2.91 8.381 2.572 11.289-.752 2.909-3.325 2.572-8.379-.752-11.289-19.997-17.498-49.061-22.228-75.467-12.681-8.423-8.643-20.805-15.573-35.798-18.475-3.415-.661-6.871.964-8.54 4.019-9.395 17.195-11.107 36.792-5.29 55.034-4.763 2.097-9.19 4.472-13.267 7.122l-28.459-58.823 11.934 10.09c3.371 2.853 8.421 2.431 11.273-.943 2.85-3.374 2.427-8.421-.947-11.274z"/><path d="m227.301 245.646c-9.767.218-18.719 5.257-23.948 13.479-2.37 3.728-1.271 8.672 2.458 11.043 3.752 2.386 8.687 1.246 11.044-2.458 2.354-3.702 6.393-5.97 10.804-6.069 4.417-.099 7.918-3.76 7.819-8.177-.1-4.467-3.82-7.924-8.177-7.818z"/><path d="m421.547 83.005c-90.65-104.803-252.313-111.864-351.386-12.526-93.537 93.786-93.621 245.441.184 339.246 83.744 83.744 212.423 92.012 305.196 28.421 38.95-26.698 68.952-63.849 86.763-107.437 1.672-4.09-.289-8.76-4.379-10.432-4.092-1.671-8.761.29-10.432 4.38-34.593 84.659-116.019 139.362-207.442 139.362-123.514 0-224-100.486-224-224s100.486-224 224-224c136.566 0 241.344 121.254 221.654 256.504-.636 4.372 2.393 8.433 6.765 9.069 4.371.638 8.433-2.392 9.069-6.764 10.064-69.133-10.344-139.05-55.992-191.823z"/><path d="m122.158 90.794c-2.883-3.347-7.935-3.723-11.282-.839-43.739 37.684-68.825 92.38-68.825 150.064 0 109.178 88.822 198 198 198 112.249 0 204.991-94.229 197.586-210.902-6.672-103.674-92.853-185.098-197.586-185.098-27.495 0-54.113 5.531-79.114 16.44-4.05 1.767-5.9 6.482-4.133 10.532s6.485 5.899 10.531 4.133c22.971-10.023 47.437-15.105 72.716-15.105 95.703 0 175.479 74.728 181.618 170.118 6.73 106.043-77.065 193.882-181.618 193.882-100.355 0-182-81.645-182-182 0-53.023 23.061-103.301 63.269-137.942 3.347-2.884 3.722-7.936.838-11.283z"/><path d="m197.159 110.918c53.808-17.867 111.88-1.093 147.951 42.732 1.582 1.922 3.872 2.917 6.182 2.916 6.685 0 10.486-7.843 6.172-13.084-40.778-49.544-106.8-67.191-165.348-47.749-4.192 1.392-6.463 5.92-5.071 10.113 1.394 4.194 5.922 6.465 10.114 5.072z"/><path d="m115.283 167.632c-3.939-2.007-8.755-.438-10.76 3.499-20.375 40.009-22.024 86.684-4.524 128.057 1.724 4.076 6.423 5.97 10.484 4.251 4.069-1.721 5.973-6.416 4.252-10.485-15.656-37.014-14.182-78.771 4.046-114.563 2.005-3.937.439-8.754-3.498-10.759z"/></g></svg>