<svg id="Layer_1" enable-background="new 0 0 480.133 480.133" height="512" viewBox="0 0 480.133 480.133" width="512" xmlns="http://www.w3.org/2000/svg"><g><path d="m409.838 70.359c-118.172-118.176-317.174-81.957-387.293 68.322-1.868 4.004-.137 8.764 3.867 10.632 4.005 1.869 8.765.137 10.633-3.867 36.672-78.596 116.389-129.382 203.088-129.382 123.514 0 224 100.486 224 224s-100.486 224-224 224c-144.803 0-251.817-135.574-217.758-276.716 1.037-4.295-1.604-8.617-5.899-9.653-4.294-1.035-8.617 1.604-9.653 5.9-36.538 151.4 78.333 296.469 233.311 296.469 133.423 0 240-108.21 240-240-.001-64.106-24.965-124.375-70.296-169.705z"/><path d="m419.219 304.188c4.219 1.313 8.702-1.044 10.015-5.264 39.621-127.434-55.578-256.86-189.101-256.86-109.178 0-198 88.822-198 198s88.822 198 198 198c71.812 0 135.188-38.345 169.953-96.358 2.271-3.79 1.04-8.703-2.75-10.975-3.791-2.271-8.704-1.04-10.975 2.75-32.743 54.64-92.606 88.583-156.229 88.583-100.355 0-182-81.645-182-182s81.645-182 182-182c122.661 0 210.255 118.933 173.821 236.11-1.31 4.219 1.048 8.703 5.266 10.014z"/><path d="m231.938 308.17c1.463 4.17 6.03 6.362 10.197 4.9 4.169-1.463 6.363-6.028 4.9-10.198l-57.354-163.458c-1.125-3.206-4.151-5.351-7.549-5.351h-44c-5.492 0-9.378 5.432-7.549 10.649l72.716 207.24c5.479 15.618 20.282 26.111 36.833 26.111s31.354-10.493 36.833-26.111l72.716-207.24c1.463-4.169-.731-8.735-4.9-10.198-4.167-1.462-8.734.731-10.197 4.9l-72.716 207.241c-3.233 9.216-11.969 15.408-21.735 15.408s-18.502-6.192-21.735-15.408l-68.979-196.592h27.044z"/></g></svg>