<svg id="Layer_1" enable-background="new 0 0 480.084 480.084" height="512" viewBox="0 0 480.084 480.084" width="512" xmlns="http://www.w3.org/2000/svg"><g><path d="m409.766 70.344c-93.78-93.782-245.823-93.858-339.595.166-93.539 93.786-93.62 245.441.185 339.246 71.44 71.442 175.296 87.648 261.092 52.289 4.085-1.684 6.032-6.36 4.349-10.445s-6.361-6.033-10.444-4.348c-27.048 11.146-55.744 16.798-85.291 16.798-123.514 0-224-100.486-224-224s100.486-224 224-224 224 100.486 224 224c0 68.457-30.722 132.278-84.288 175.1-3.451 2.759-4.013 7.793-1.254 11.244 2.76 3.451 7.793 4.013 11.244 1.253 111.536-89.162 121.566-255.739 20.002-357.303z"/><path d="m430.348 206.634c4.317-.939 7.056-5.201 6.116-9.518-9.603-44.123-34.275-84.228-69.473-112.925-73.694-60.087-180.139-60.253-253.991.084-35.113 28.688-59.738 68.762-69.337 112.84-.94 4.317 1.797 8.579 6.114 9.519 4.298.937 8.576-1.781 9.519-6.115 18.357-84.291 94.379-145.47 180.765-145.47 86.4 0 162.425 61.178 180.769 145.469.94 4.318 5.202 7.058 9.518 6.116z"/><path d="m43.664 282.984c19.581 89.917 99.641 158.066 196.397 158.066 96.038 0 176.707-67.562 196.403-158.066.939-4.317-1.799-8.579-6.116-9.518-4.317-.941-8.578 1.799-9.519 6.116-18.344 84.291-94.368 145.469-180.769 145.469-86.386 0-162.407-61.179-180.765-145.47-.939-4.316-5.197-7.055-9.519-6.115-4.315.939-7.053 5.201-6.112 9.518z"/><path d="m93.314 195.671c-4.282-1.047-8.62 1.584-9.667 5.877-24.739 101.471 51.848 199.502 156.414 199.502 88.775 0 161-72.224 161-161 0-110.861-109.622-188.107-213.14-152.349-32.059 11.074-60.433 32.43-79.895 60.134-2.54 3.615-1.668 8.605 1.947 11.145 3.615 2.541 8.606 1.668 11.145-1.947 37.518-53.406 104.136-75.212 165.757-54.262 58.728 20.023 98.186 75.192 98.186 137.28 0 79.953-65.047 145-145 145-94.052 0-163.185-88.183-140.869-179.711 1.047-4.294-1.585-8.622-5.878-9.669z"/><path d="m119.401 280.474c.758 4.334 4.883 7.265 9.258 6.504l198.678-34.712c-.172.694-.318 1.399-.435 2.114-6.986 42.687-43.508 73.67-86.841 73.67-22.891 0-44.571-8.744-61.05-24.621-3.181-3.066-8.246-2.972-11.312.21-3.065 3.182-2.972 8.246.21 11.312 38.953 37.534 99.543 38.613 139.816 4.08 18.609-15.957 31.026-37.999 34.966-62.067.743-4.544 4.291-8.129 8.829-8.922 4.352-.761 7.264-4.905 6.504-9.258-.761-4.353-4.903-7.26-9.258-6.504l-222.862 38.937c-4.352.76-7.263 4.904-6.503 9.257z"/><path d="m240.061 152.05c22.891 0 44.571 8.744 61.05 24.621 3.181 3.065 8.244 2.971 11.312-.21 3.065-3.182 2.972-8.246-.21-11.312-19.475-18.765-45.099-29.1-72.151-29.1-51.603 0-94.537 37.635-102.631 87.087-.743 4.544-4.291 8.129-8.829 8.922-3.264.571-5.718 3.044-6.42 6.082-1.153 4.99 2.647 9.8 7.788 9.8 1.082 0-14.985 2.734 224.249-39.058 4.353-.76 7.264-4.905 6.504-9.257-.762-4.352-4.907-7.263-9.258-6.504l-198.678 34.712c.172-.694.318-1.399.435-2.114 6.985-42.686 43.506-73.669 86.839-73.669z"/></g></svg>