<svg id="Layer_1" enable-background="new 0 0 480 480" height="512" viewBox="0 0 480 480" width="512" xmlns="http://www.w3.org/2000/svg"><g><path d="m388.169 51.185c-3.476-2.73-8.505-2.125-11.233 1.348-2.73 3.474-2.127 8.503 1.347 11.233 54.474 42.805 85.717 107.04 85.717 176.234 0 123.514-100.486 224-224 224s-224-100.486-224-224 100.486-224 224-224c30.244 0 59.578 5.921 87.188 17.6 4.071 1.722 8.763-.183 10.484-4.251 1.721-4.069-.183-8.764-4.252-10.485-29.592-12.517-61.023-18.864-93.42-18.864-133.184 0-240 107.848-240 240 0 132.64 107.341 240 240 240 133.423 0 240-108.21 240-240 0-74.136-33.472-142.956-91.831-188.815z"/><path d="m282.937 436.4c44.123-9.603 84.228-34.274 112.925-69.472 60.078-73.684 60.262-180.127-.085-253.991-28.688-35.114-68.762-59.738-112.84-69.337-4.309-.939-8.579 1.797-9.519 6.115-.94 4.317 1.797 8.579 6.114 9.519 84.291 18.356 145.47 94.379 145.47 180.764 0 86.401-61.178 162.425-145.468 180.769-4.317.939-7.056 5.201-6.116 9.518.943 4.332 5.219 7.053 9.519 6.115z"/><path d="m197.068 43.6c-89.917 19.581-158.066 99.64-158.066 196.398 0 96.041 67.563 176.707 158.066 196.403 4.301.938 8.576-1.786 9.518-6.116.939-4.317-1.798-8.579-6.116-9.518-84.29-18.344-145.468-94.369-145.468-180.769 0-86.385 61.179-162.408 145.47-180.764 4.317-.94 7.055-5.202 6.115-9.519-.94-4.318-5.205-7.054-9.519-6.115z"/><path d="m316.969 296.262h68.264c3.446 0 6.506-2.208 7.592-5.478 27.865-83.894-17.155-174.674-100.853-203.21-103.556-35.204-212.972 41.149-212.972 152.426 0 4.418 3.582 8 8 8s8-3.582 8-8c0-99.382 97.63-169.296 191.814-137.28 73.282 24.985 113.854 103.765 92.526 177.542h-54.372v-125.262c0-6.551-7.482-10.337-12.76-6.43l-72.208 53.446-72.209-53.446c-5.266-3.897-12.759-.136-12.759 6.43v125.262h-60.254c-4.418 0-8 3.582-8 8s3.582 8 8 8h68.253c4.418 0 8-3.582 8-8v-117.387l64.209 47.525c2.827 2.093 6.691 2.093 9.519 0l64.209-47.525v117.388c.001 4.418 3.583 7.999 8.001 7.999z"/><path d="m371.717 332.606c2.544-3.612 1.678-8.603-1.935-11.147s-8.603-1.679-11.147 1.934c-55.136 78.284-166.928 81.516-227.346 12.607h71.481c4.418 0 8-3.582 8-8v-71.301l24.507 17.925c2.813 2.058 6.633 2.058 9.446 0l24.508-17.925v71.301c0 4.418 3.582 8 8 8h38.092c4.418 0 8-3.582 8-8s-3.582-8-8-8h-30.093v-79.064c0-6.528-7.44-10.325-12.723-6.457l-32.507 23.776-32.508-23.777c-5.268-3.854-12.723-.09-12.723 6.457v79.065h-79.935c-6.468 0-10.269 7.31-6.542 12.605 64.22 91.217 199.24 91.133 263.425.001z"/></g></svg>